<?xml version="1.0" standalone="no"?>
<!DOCTYPE svg PUBLIC "-//W3C//DTD SVG 20010904//EN"
 "http://www.w3.org/TR/2001/REC-SVG-20010904/DTD/svg10.dtd">
<svg version="1.0" xmlns="http://www.w3.org/2000/svg"
 width="960.000000pt" height="960.000000pt" viewBox="0 0 960.000000 960.000000"
 preserveAspectRatio="xMidYMid meet">

<g transform="translate(0.000000,960.000000) scale(0.100000,-0.100000)"
fill="#000000" stroke="none">
<path d="M0 4805 l0 -4795 4800 0 4800 0 0 4795 0 4795 -4800 0 -4800 0 0
-4795z m5160 2566 c47 -5 123 -21 169 -36 72 -23 93 -35 142 -82 35 -33 65
-74 79 -106 24 -55 56 -182 65 -260 6 -42 10 -49 41 -62 23 -10 39 -26 49 -49
33 -77 7 -241 -45 -294 -21 -21 -29 -40 -33 -87 -9 -86 -23 -127 -61 -182 -56
-82 -160 -146 -274 -169 -36 -7 -53 -25 -31 -32 22 -8 155 -140 210 -208 61
-77 100 -155 143 -286 58 -176 69 -293 31 -332 -18 -18 -101 -29 -137 -19 -15
5 -61 39 -103 77 -84 78 -90 97 -55 175 25 55 25 65 -4 127 -25 53 -132 153
-147 137 -4 -4 -21 -55 -38 -112 -36 -121 -38 -114 62 -221 104 -112 133 -198
103 -303 -25 -85 -23 -90 41 -128 96 -57 145 -150 105 -199 -17 -22 -30 -25
-108 -30 -172 -10 -416 23 -481 65 -36 24 -32 99 13 205 19 47 40 97 47 112
10 24 7 30 -39 72 -49 45 -50 45 -122 46 l-73 0 -49 -46 c-28 -26 -50 -51 -50
-56 0 -6 15 -42 34 -81 55 -118 72 -211 43 -248 -32 -42 -223 -81 -408 -83
-122 -1 -139 1 -158 18 -12 11 -21 31 -21 48 0 60 33 106 134 190 28 23 28 26
16 63 -18 55 -17 182 2 225 9 19 50 78 92 131 43 55 76 106 76 119 0 26 -49
191 -61 204 -12 13 -116 -58 -133 -91 -7 -16 -19 -47 -26 -70 -12 -38 -11 -45
14 -94 38 -78 35 -90 -41 -169 -79 -82 -124 -104 -192 -94 -78 11 -81 15 -81
102 0 139 72 381 150 500 51 80 164 198 228 239 28 18 52 35 52 37 0 2 -33 14
-72 26 -95 29 -155 60 -201 106 -48 47 -72 93 -93 180 -11 47 -26 79 -46 100
-37 40 -58 109 -58 196 0 79 17 121 58 142 25 13 29 23 41 98 18 111 48 240
66 284 22 53 72 111 118 139 55 31 170 62 282 74 101 11 604 5 735 -8z m2533
-2558 c-4 -11 -8 -13 -11 -5 -2 7 -8 10 -12 7 -13 -8 0 -35 16 -35 7 0 18 8
23 18 9 15 10 15 11 1 0 -29 -56 -40 -66 -14 -7 18 12 45 32 45 8 0 11 -6 7
-17z m-5123 -14 c0 -5 -10 -9 -21 -9 -18 0 -19 2 -9 15 12 15 30 12 30 -6z
m145 12 c3 -5 -4 -13 -16 -16 -23 -8 -34 -1 -24 14 8 13 32 14 40 2z m5138 2
c-7 -2 -13 -12 -13 -20 0 -9 -3 -14 -6 -10 -10 10 4 37 18 36 10 0 10 -2 1 -6z
m-5103 -41 c0 -15 5 -33 11 -39 8 -8 9 -35 4 -83 -4 -40 -11 -67 -15 -60 -5 8
-10 4 -15 -12 -4 -12 -7 -26 -7 -29 1 -3 -5 -23 -13 -45 -10 -30 -20 -40 -44
-47 -18 -4 -34 -14 -37 -21 -3 -8 -19 -20 -35 -26 -16 -7 -29 -19 -29 -26 0
-18 48 -37 76 -30 20 5 40 45 35 73 -1 6 11 14 26 17 27 6 53 42 53 75 0 9 7
25 15 35 8 11 15 36 16 55 0 31 2 33 9 14 5 -12 18 -24 29 -28 12 -3 21 -15
21 -26 0 -21 -10 -25 -27 -8 -16 16 -41 -25 -52 -87 -11 -57 -4 -104 14 -104
15 0 26 90 13 105 -13 15 -9 23 10 18 14 -3 17 -12 14 -36 -3 -26 -1 -29 8
-17 9 12 10 5 5 -29 -6 -34 -4 -42 6 -39 15 5 20 76 7 84 -4 3 -1 19 8 35 8
17 19 49 24 72 7 33 8 27 4 -29 -5 -60 -3 -72 11 -78 9 -3 13 -10 10 -16 -3
-5 1 -10 9 -10 8 0 17 -8 21 -19 3 -10 24 -31 47 -46 l41 -27 -7 26 c-8 34 13
35 42 2 18 -21 19 -26 6 -37 -8 -6 -14 -22 -14 -35 0 -15 -6 -24 -15 -24 -8 0
-15 9 -15 20 0 24 -8 25 -31 4 -16 -15 -19 -14 -32 12 -14 27 -14 27 -26 6
-13 -25 -31 -29 -31 -8 0 24 -20 29 -34 10 -13 -17 -14 -16 -25 4 -14 26 -31
20 -31 -9 0 -24 -9 -24 -26 -1 -12 16 -15 16 -59 -7 -28 -15 -59 -43 -78 -70
-28 -40 -32 -54 -32 -113 0 -57 4 -72 30 -110 44 -63 124 -101 213 -101 110 1
185 43 227 126 32 64 32 110 0 173 -14 27 -25 50 -25 50 0 1 9 4 20 7 17 4 19
11 14 31 -5 21 -3 25 10 20 9 -3 16 -14 16 -23 0 -23 9 -31 26 -24 11 4 13 14
9 37 l-7 31 23 -22 c18 -17 20 -25 10 -36 -9 -11 -8 -28 4 -73 20 -77 19 -123
-4 -183 -28 -75 -76 -127 -150 -164 -61 -30 -72 -32 -171 -32 -99 0 -109 2
-173 33 -72 36 -133 102 -156 171 -28 86 -7 195 54 275 14 18 25 36 25 41 0 7
-83 2 -127 -9 -13 -2 -23 -1 -23 5 0 5 5 9 10 9 6 0 10 14 10 30 0 33 7 38 24
15 10 -13 15 -12 40 10 16 14 33 25 38 25 4 0 8 5 8 11 0 7 -11 8 -30 4 -24
-5 -32 -3 -38 12 -4 10 -15 19 -24 19 -13 1 -18 -6 -18 -26 0 -15 -6 -30 -14
-33 -8 -3 -17 -20 -21 -37 -5 -21 -12 -30 -23 -29 -39 3 -48 -1 -29 -15 22
-17 10 -27 -33 -30 -16 -1 -37 -12 -48 -26 l-19 -24 -69 34 c-60 31 -78 35
-144 35 -113 0 -211 -55 -241 -133 -12 -31 -14 -110 -4 -144 39 -127 238 -182
391 -107 42 20 81 69 67 83 -4 3 -52 6 -109 6 -66 0 -104 4 -106 11 -2 6 -2
27 0 45 l4 34 157 -2 156 -3 -1 -55 c-2 -95 -53 -168 -149 -212 -43 -20 -66
-23 -170 -23 -111 0 -124 2 -177 28 -149 73 -210 247 -138 390 79 158 322 222
500 132 61 -31 73 -31 95 -1 11 14 36 32 57 42 26 12 37 22 33 32 -8 22 13 41
42 36 23 -4 25 -2 19 20 -5 20 -3 24 9 20 8 -4 15 -10 15 -15 0 -5 4 -9 9 -9
13 0 -15 53 -39 75 -11 10 -20 24 -20 31 0 7 -5 14 -11 16 -19 6 -15 91 6 120
30 40 45 43 45 8 l0 -30 20 20 c11 11 20 26 20 33 0 6 5 4 11 -7 9 -14 8 -20
-2 -27 -8 -5 -9 -9 -3 -9 16 0 78 32 86 44 4 6 8 -3 8 -21 0 -20 -8 -40 -21
-51 l-20 -19 28 -6 c36 -7 49 5 58 51 13 69 45 100 45 44z m5130 8 c0 -11 -2
-20 -4 -20 -2 0 -6 9 -9 20 -3 11 -1 20 4 20 5 0 9 -9 9 -20z m205 -60 c3 -6
-1 -7 -9 -4 -18 7 -21 14 -7 14 6 0 13 -4 16 -10z m-5075 -70 c0 -5 -4 -10 -9
-10 -6 0 -13 5 -16 10 -3 6 1 10 9 10 9 0 16 -4 16 -10z m29 -51 c-22 -27 -45
-49 -51 -49 -5 0 9 21 31 46 23 26 41 51 41 56 0 5 5 6 10 3 6 -4 -7 -27 -31
-56z m4673 14 c5 -7 6 -18 2 -25 -9 -14 -22 21 -22 57 l0 20 5 -20 c3 -11 10
-25 15 -32z m-4829 31 c8 -8 -3 -34 -14 -34 -5 0 -9 9 -9 20 0 19 11 26 23 14z
m4945 -8 c-7 -8 -15 -12 -17 -11 -5 6 10 25 20 25 5 0 4 -6 -3 -14z m-4887
-86 l-20 -55 0 49 c-1 35 4 52 17 62 24 18 25 6 3 -56z m219 61 c0 -5 -12 -12
-27 -16 -35 -8 -83 -53 -77 -70 6 -14 -40 -65 -58 -65 -20 0 3 55 36 85 19 17
37 39 40 50 5 13 10 15 14 8 5 -8 14 -8 32 2 30 17 40 18 40 6z m4626 -18
c-10 -10 -19 5 -10 18 6 11 8 11 12 0 2 -7 1 -15 -2 -18z m-114 -10 c-3 -16
-7 -22 -10 -15 -4 13 4 42 11 42 2 0 2 -12 -1 -27z m302 12 c-4 -8 -11 -15
-16 -15 -6 0 -5 6 2 15 7 8 14 15 16 15 2 0 1 -7 -2 -15z m-4774 -12 c-1 -5
-24 -19 -53 -33 -74 -36 -75 -36 -47 -7 14 15 33 27 42 27 9 0 20 5 23 10 7
12 35 14 35 3z m4560 -33 c0 -5 -2 -10 -4 -10 -3 0 -8 5 -11 10 -3 6 -1 10 4
10 6 0 11 -4 11 -10z m-4515 -10 c8 -13 -10 -37 -39 -52 -20 -11 -20 -10 -3 9
25 28 21 35 -15 28 l-33 -6 25 15 c29 18 56 20 65 6z m-273 -25 c-2 -14 -6
-25 -8 -25 -2 0 -4 11 -4 25 0 14 4 25 9 25 4 0 6 -11 3 -25z m4948 15 c0 -5
-2 -10 -4 -10 -3 0 -8 5 -11 10 -3 6 -1 10 4 10 6 0 11 -4 11 -10z m-60 -20
c0 -5 -4 -10 -10 -10 -5 0 -10 5 -10 10 0 6 5 10 10 10 6 0 10 -4 10 -10z
m-4733 -29 c0 -11 -5 -17 -9 -15 -11 7 -10 34 1 34 6 0 9 -9 8 -19z m-167 -31
c7 -17 9 -34 6 -38 -10 -9 -36 27 -36 50 0 28 16 21 30 -12z m290 10 c0 -5 -6
-10 -14 -10 -7 0 -19 -7 -26 -16 -8 -8 -9 -14 -4 -13 21 4 34 -2 34 -16 0 -8
-8 -15 -18 -15 -10 0 -28 -11 -40 -25 -27 -31 -41 -26 -36 15 5 45 22 70 47
70 12 0 29 5 37 10 19 12 20 12 20 0z m40 -29 c0 -10 -7 -21 -15 -24 -12 -5
-12 -2 -3 18 13 30 18 31 18 6z m4700 9 c0 -13 -12 -19 -26 -13 -21 8 -17 19
6 19 11 0 20 -3 20 -6z m-5320 -20 c0 -5 -4 -10 -9 -10 -5 0 -13 -9 -16 -21
-4 -11 -9 -18 -11 -16 -7 7 18 57 28 57 4 0 8 -4 8 -10z m438 -20 c25 -23 29
-60 8 -60 -12 0 -56 60 -56 76 0 11 29 2 48 -16z m4614 -12 c72 -33 124 -80
156 -142 35 -69 37 -179 5 -246 -55 -111 -154 -171 -294 -178 -222 -11 -370
122 -357 320 9 129 91 224 228 264 70 21 197 12 262 -18z m-3904 -20 l-3 -43
-102 -3 -103 -3 0 -238 c0 -260 -1 -266 -57 -259 l-28 3 -3 240 c-1 135 -7
244 -12 249 -5 5 -42 9 -82 8 -40 -2 -85 0 -100 4 -25 5 -28 10 -28 45 l0 39
261 0 260 0 -3 -42z m917 -3 l0 -40 -180 -1 -180 -2 -3 -81 -3 -81 163 -2 163
-3 3 -42 3 -43 -165 0 -166 0 0 -114 c0 -124 -4 -135 -55 -132 l-30 2 -3 292
-2 292 227 -2 228 -3 0 -40z m265 -151 l5 -191 29 -37 c81 -107 263 -97 329
19 8 12 14 93 17 210 l5 190 43 3 42 3 0 -184 c0 -207 -9 -248 -64 -313 -100
-117 -310 -125 -421 -17 -68 66 -79 104 -83 305 -2 98 -2 185 2 193 4 12 17
15 48 13 l43 -3 5 -191z m975 -29 c116 -123 212 -225 215 -225 3 0 4 101 2
225 l-4 225 46 0 46 0 -2 -292 -3 -293 -45 2 c-41 2 -50 7 -105 65 -231 244
-364 377 -368 371 -2 -5 -1 -55 4 -113 4 -58 8 -151 8 -207 1 -115 -7 -129
-68 -117 l-31 7 0 282 c0 155 3 285 7 288 3 4 25 7 47 7 41 0 44 -2 251 -225z
m606 93 c2 -156 1 -152 14 -156 9 -2 89 54 119 83 6 6 66 55 132 108 l121 97
57 0 c32 0 56 -4 54 -9 -1 -5 -63 -57 -136 -116 -73 -59 -131 -111 -130 -116
3 -7 85 -109 211 -261 31 -38 55 -73 53 -77 -4 -6 -83 -7 -106 -2 -3 1 -54 64
-115 141 -60 76 -114 139 -119 140 -18 0 -146 -112 -151 -133 -3 -12 -4 -40
-2 -62 6 -60 -5 -90 -31 -88 -69 3 -62 -28 -62 286 0 156 3 287 7 290 3 4 24
7 45 7 l38 0 1 -132z m-3351 77 c0 -8 4 -15 9 -15 5 0 12 -8 15 -17 6 -16 6
-16 -12 0 -10 9 -24 17 -30 17 -7 0 -12 7 -12 15 0 8 7 15 15 15 8 0 15 -7 15
-15z m-105 -899 c34 -14 46 -38 25 -51 -5 -3 -24 2 -41 10 -59 31 -116 5 -140
-63 -14 -41 4 -79 50 -106 33 -19 36 -19 79 -3 25 9 49 14 54 11 19 -12 6 -36
-27 -50 -101 -42 -205 21 -207 125 -1 104 105 169 207 127z m392 -3 c46 -22
73 -67 73 -123 0 -82 -60 -140 -145 -140 -110 0 -180 113 -130 210 32 61 131
87 202 53z m275 -100 l3 -118 58 -5 c31 -3 57 -8 57 -12 0 -5 0 -13 0 -18 0
-7 -30 -10 -82 -8 l-83 3 -3 124 c-2 68 -1 129 2 137 3 8 14 14 25 14 19 0 21
-8 23 -117z m318 -3 l5 -115 58 -3 c49 -3 57 -6 57 -23 0 -18 -6 -20 -82 -17
l-83 3 -3 138 -3 138 23 -3 c22 -3 23 -8 28 -118z m465 100 c0 -11 -14 -16
-55 -18 -93 -4 -102 -8 -98 -45 l3 -32 68 -3 c58 -3 67 -5 67 -22 0 -17 -9
-19 -67 -22 l-68 -3 0 -35 0 -35 78 -3 c69 -3 77 -5 77 -23 0 -19 -6 -20 -102
-17 l-103 3 0 125 c0 69 2 131 4 138 6 20 196 12 196 -8z m355 5 c30 -16 39
-38 20 -50 -6 -4 -16 -2 -23 3 -39 31 -124 15 -146 -26 -16 -30 -13 -84 4
-109 9 -13 33 -28 54 -34 31 -9 43 -8 71 6 29 15 34 15 48 2 13 -14 11 -18
-19 -36 -96 -59 -219 9 -219 120 0 103 117 172 210 124z m383 1 c8 -20 -2 -26
-44 -26 -45 0 -46 -3 -47 -136 -1 -92 -2 -99 -21 -102 -20 -3 -21 1 -21 111 0
125 -1 127 -61 127 -22 0 -29 5 -29 20 0 19 7 20 109 20 84 0 110 -3 114 -14z
m187 -127 c0 -140 0 -140 -22 -137 -22 3 -23 7 -26 127 -1 69 0 131 2 138 3 7
15 13 26 13 19 0 20 -6 20 -141z m370 123 c49 -24 80 -75 80 -129 0 -37 -6
-50 -39 -85 -35 -38 -43 -42 -97 -46 -50 -3 -65 0 -94 20 -19 13 -43 41 -53
62 -57 121 79 241 203 178z m355 -81 l70 -95 3 98 c3 94 3 97 25 94 21 -3 22
-6 22 -138 0 -130 -1 -135 -21 -138 -17 -2 -37 17 -90 87 -38 50 -72 91 -76
91 -5 0 -8 -41 -8 -91 0 -88 -1 -90 -22 -87 -22 3 -23 7 -26 127 -1 69 0 131
3 139 12 33 51 5 120 -87z m470 78 c9 -9 11 -19 6 -28 -7 -11 -17 -12 -50 -3
-50 12 -81 6 -81 -18 0 -22 13 -32 72 -54 52 -19 63 -30 73 -68 6 -22 1 -33
-23 -58 -26 -25 -38 -30 -79 -30 -52 0 -113 29 -113 54 0 21 19 30 34 16 43
-35 126 -29 126 9 0 14 -16 25 -62 43 -94 36 -117 99 -51 141 33 21 126 19
148 -4z"/>
<path d="M2497 4709 c7 -7 15 -10 18 -7 3 3 -2 9 -12 12 -14 6 -15 5 -6 -5z"/>
<path d="M2530 4700 c-11 -21 0 -26 40 -20 20 3 21 5 14 24 -9 22 -41 20 -54
-4z"/>
<path d="M2711 4694 c0 -11 3 -14 6 -6 3 7 2 16 -1 19 -3 4 -6 -2 -5 -13z"/>
<path d="M2580 4646 c0 -9 5 -16 10 -16 6 0 10 4 10 9 0 6 -4 13 -10 16 -5 3
-10 -1 -10 -9z"/>
<path d="M2620 4645 c-10 -13 -9 -15 9 -15 12 0 21 6 21 15 0 8 -4 15 -9 15
-5 0 -14 -7 -21 -15z"/>
<path d="M2528 4628 c12 -12 24 -19 28 -15 8 8 -21 37 -38 37 -7 0 -4 -9 10
-22z"/>
<path d="M2660 4632 c0 -10 -5 -23 -12 -30 -21 -21 14 -14 40 8 26 21 22 40
-9 40 -12 0 -19 -7 -19 -18z"/>
<path d="M2623 4560 c-13 -5 -23 -16 -23 -25 0 -22 12 -18 33 10 10 14 17 25
15 24 -2 0 -13 -4 -25 -9z"/>
<path d="M2663 4538 c-33 -20 -46 -42 -18 -32 8 4 15 1 15 -5 0 -6 -3 -11 -7
-11 -5 0 -19 -9 -33 -20 -20 -16 -22 -20 -7 -20 22 0 83 58 92 88 8 27 0 27
-42 0z"/>
<path d="M2877 4403 c-4 -3 -7 -15 -7 -25 0 -17 1 -18 25 -2 14 9 25 20 25 25
0 10 -34 12 -43 2z"/>
<path d="M2688 4394 c-5 -4 -8 -16 -8 -28 0 -14 3 -17 11 -9 6 6 9 19 7 28 -1
9 -6 13 -10 9z"/>
<path d="M7467 4316 c-158 -59 -198 -250 -72 -353 96 -80 273 -73 358 13 45
45 61 84 61 144 -1 83 -41 143 -124 186 -46 23 -172 29 -223 10z"/>
<path d="M3403 3415 c-39 -17 -53 -42 -53 -94 0 -31 6 -44 27 -60 36 -29 68
-36 104 -21 78 33 80 139 2 179 -28 14 -41 13 -80 -4z"/>
<path d="M5765 3421 c-31 -13 -55 -45 -61 -83 -12 -72 82 -132 144 -92 38 25
51 45 52 77 0 43 -26 84 -61 96 -37 13 -46 13 -74 2z"/>
</g>
</svg>
